# xmcd
#
# Track frame offsets: 
#        150
#        21040
#        42204
#        67018
#        84483
#        106029
#        128991
#        140797
#        166989
#        185526
#        198876
#        221235
#        237177
#        253648
#        265866
#        275778
#        291273
#        310729
#        331626
#
# Disc length: 4761 seconds
#
# Revision: 0
# Processed by: cddbd v1.5.2PL0 Copyright (c) Steve Scherf et al.
# Submitted via: ExactAudioCopy v1.3
#
DISCID=1b129713
DTITLE=Various Artist - Akella Presents - vol.210 - Blues-Relax  CD2
DYEAR=2019
DGENRE=Blues
TTITLE0=Hanno Bruhn Gang - Dance in the Twilight
TTITLE1=Bluesin' the Groove - Fool's Paradise
TTITLE2=Johnny Blue Horn - Rainy Night in Georgia
TTITLE3=Delbert McClinton - Temporarily Insane
TTITLE4=Brad James Band - Together
TTITLE5=Steve Morgan - Blues In Paradise
TTITLE6=Andrew Robert Eustace - Too Fast
TTITLE7=The Mike Eldred Trio - Baptist Town
TTITLE8=Diana Rein - My Love
TTITLE9=30 Music Street - Your own heart
TTITLE10=Heavy Feather - Whispering Things
TTITLE11=Ina Forsman - Sunny
TTITLE12=Johnny Hoy - Tennessee Waltz
TTITLE13=Steve Gannon - Ain't Coming Back No More
TTITLE14=Big Jack Reynolds - Gonna Love Somebody
TTITLE15=Trevor Finlay - Something About the Cold
TTITLE16=Big Moose - Drink Too Much
TTITLE17=Hans Theessink - Man With A Broken Heart
TTITLE18=Penta Leslee Swanson - Homeless Blues
EXTD=
EXTT0=
EXTT1=
EXTT2=
EXTT3=
EXTT4=
EXTT5=
EXTT6=
EXTT7=
EXTT8=
EXTT9=
EXTT10=
EXTT11=
EXTT12=
EXTT13=
EXTT14=
EXTT15=
EXTT16=
EXTT17=
EXTT18=
PLAYORDER=
